<svg width="58" height="58" viewBox="0 0 58 58" fill="none" xmlns="http://www.w3.org/2000/svg">
<path d="M29.0537 52.9507C30.2617 52.9507 31.3355 52.2796 31.3355 50.6689V48.5213C38.5569 47.7427 43.0669 43.5012 43.0669 37.3268C43.0669 32.0114 39.8723 28.79 33.2415 27.3403L27.792 26.1054C24.3826 25.3538 22.7182 23.7967 22.7182 21.5149C22.7182 18.7767 25.0806 16.7901 28.7852 16.7901C31.7919 16.7901 33.8858 17.8102 36.2214 20.4142C37.4026 21.6491 38.3153 22.1055 39.5502 22.1055C41.0535 22.1055 42.2079 21.0585 42.2079 19.5015C42.2079 17.9982 41.322 16.3606 39.8186 14.8841C37.8321 13.0049 34.8523 11.7701 31.4966 11.3405V9.11237C31.4966 7.52849 30.4228 6.85736 29.1879 6.85736C27.9799 6.85736 26.9061 7.50165 26.9061 9.11237V11.26C19.9531 11.9043 15.5237 16.0653 15.5237 22.025C15.5237 27.2329 18.7182 30.696 24.839 32.0651L30.2886 33.3268C34.2617 34.2664 35.8992 35.6624 35.8992 38.0248C35.8992 41.0851 33.51 43.018 29.2416 43.018C26.047 43.018 23.3893 41.8099 20.9732 39.2059C19.6041 37.8368 18.8525 37.5415 17.8323 37.5415C16.1948 37.5415 14.9599 38.5885 14.9599 40.3871C14.9599 41.971 15.8726 43.6086 17.5102 45.0314C19.6578 46.9911 23.0135 48.1991 26.745 48.5481V50.6689C26.745 52.2796 27.8188 52.9507 29.0537 52.9507Z" fill="#3BDC9C"/>
</svg>
